<?xml version="1.0" encoding="UTF-8" standalone="no"?>
<!-- Created with Inkscape (http://www.inkscape.org/) -->

<svg
   xmlns:dc="http://purl.org/dc/elements/1.1/"
   xmlns:cc="http://creativecommons.org/ns#"
   xmlns:rdf="http://www.w3.org/1999/02/22-rdf-syntax-ns#"
   xmlns:svg="http://www.w3.org/2000/svg"
   xmlns="http://www.w3.org/2000/svg"
   xmlns:sodipodi="http://sodipodi.sourceforge.net/DTD/sodipodi-0.dtd"
   xmlns:inkscape="http://www.inkscape.org/namespaces/inkscape"
   version="1.1"
   id="svg2"
   xml:space="preserve"
   width="549.98798"
   height="260.49066"
   viewBox="0 0 549.98798 260.49066"
   sodipodi:docname="UNTREF SIN BAJADA EN CURVAS.pdf"
   inkscape:version="0.92.0 r15299"><metadata
     id="metadata8"><rdf:RDF><cc:Work
         rdf:about=""><dc:format>image/svg+xml</dc:format><dc:type
           rdf:resource="http://purl.org/dc/dcmitype/StillImage" /><dc:title></dc:title></cc:Work></rdf:RDF></metadata><defs
     id="defs6"><clipPath
       clipPathUnits="userSpaceOnUse"
       id="clipPath20"><path
         d="M 0,195.368 H 412.491 V 0 H 0 Z"
         id="path18"
         inkscape:connector-curvature="0" /></clipPath></defs><sodipodi:namedview
     pagecolor="#ffffff"
     bordercolor="#666666"
     borderopacity="1"
     objecttolerance="10"
     gridtolerance="10"
     guidetolerance="10"
     inkscape:pageopacity="0"
     inkscape:pageshadow="2"
     inkscape:window-width="1366"
     inkscape:window-height="704"
     id="namedview4"
     showgrid="false"
     inkscape:zoom="0.90598257"
     inkscape:cx="359.4327"
     inkscape:cy="130.24533"
     inkscape:window-x="0"
     inkscape:window-y="27"
     inkscape:window-maximized="1"
     inkscape:current-layer="g10" /><g
     id="g10"
     inkscape:groupmode="layer"
     inkscape:label="UNTREF SIN BAJADA EN CURVAS"
     transform="matrix(1.3333333,0,0,-1.3333333,0,260.49067)"><path
       d="M 357.621,54.871 H 54.871 v 11.347 h 302.75 z"
       style="fill:#231f20;fill-opacity:1;fill-rule:nonzero;stroke:none"
       id="path12"
       inkscape:connector-curvature="0" /><g
       id="g14"><g
         id="g16"
         clip-path="url(#clipPath20)"><g
           id="g22"
           transform="translate(271.9521,85.627)"><path
             d="M 0,0 V 54.871 H 36.154 V 45.808 H 10.936 V 33.001 h 23.05 V 23.938 H 10.936 V 9.063 h 26.4 V 0 Z M 50.832,0 V 54.871 H 85.509 V 45.808 H 61.767 V 33.001 H 83.341 V 23.938 H 61.767 V 0 Z m -96.737,0 h -10.936 v 54.871 h 22.756 c 12.117,0 18.126,-5.517 18.126,-16.55 0,-8.669 -4.334,-13.004 -8.373,-14.383 L -15.071,0 h -11.92 l -8.078,21.771 h -10.836 z m 0,30.538 h 8.964 c 6.403,0 9.555,1.774 9.555,7.783 0,6.009 -3.152,7.782 -9.555,7.782 h -8.964 z m -45.907,15.171 h -13.89 v 9.162 h 38.813 v -9.162 h -13.89 V 0 H -91.812 Z M -158.11,0 v 54.871 h 12.905 l 18.126,-36.745 h 0.493 v 36.745 h 10.541 V 0 h -12.708 l -18.52,38.222 h -0.493 V 0 Z m -58.81,54.871 h 11.032 V 16.845 c 0,-6.304 3.152,-8.767 9.457,-8.767 6.306,0 9.556,2.463 9.556,8.767 v 38.026 h 10.935 V 16.845 c 0,-11.919 -7.289,-17.83 -20.491,-17.83 -13.2,0 -20.489,5.911 -20.489,17.929 z"
             style="fill:#231f20;fill-opacity:1;fill-rule:nonzero;stroke:none"
             id="path24"
             inkscape:connector-curvature="0" /></g></g></g></g></svg>